<?xml version="1.0" standalone="no"?>
<!DOCTYPE svg PUBLIC "-//W3C//DTD SVG 1.1//EN" "http://www.w3.org/Graphics/SVG/1.1/DTD/svg11.dtd">
<svg version="1.1" width="1200" height="374" onload="init(evt)" viewBox="0 0 1200 374" xmlns="http://www.w3.org/2000/svg" xmlns:xlink="http://www.w3.org/1999/xlink">
<style type="text/css">
	text { font-family:Verdana; font-size:12px; fill:rgb(0,0,0); }
	#search { opacity:0.1; cursor:pointer; }
	#search:hover, #search.show { opacity:1; }
	#subtitle { text-anchor:middle; font-color:rgb(160,160,160); }
	#title { text-anchor:middle; font-size:17px}
	#unzoom { cursor:pointer; }
	#frames > *:hover { stroke:black; stroke-width:0.5; cursor:pointer; }
	.hide { display:none; }
	.parent { opacity:0.5; }
</style>
<script type="text/ecmascript">
<![CDATA[
	"use strict";
	var details, searchbtn, unzoombtn, matchedtxt, svg, searching;
	function init(evt) {
		details = document.getElementById("details").firstChild;
		searchbtn = document.getElementById("search");
		unzoombtn = document.getElementById("unzoom");
		matchedtxt = document.getElementById("matched");
		svg = document.getElementsByTagName("svg")[0];
		searching = 0;
	}

	window.addEventListener("click", function(e) {
		var target = find_group(e.target);
		if (target) {
			if (target.nodeName == "a") {
				if (e.ctrlKey === false) return;
				e.preventDefault();
			}
			if (target.classList.contains("parent")) unzoom();
			zoom(target);
		}
		else if (e.target.id == "unzoom") unzoom();
		else if (e.target.id == "search") search_prompt();
	}, false)

	// mouse-over for info
	// show
	window.addEventListener("mouseover", function(e) {
		var target = find_group(e.target);
		if (target) details.nodeValue = "Function: " + g_to_text(target);
	}, false)

	// clear
	window.addEventListener("mouseout", function(e) {
		var target = find_group(e.target);
		if (target) details.nodeValue = ' ';
	}, false)

	// ctrl-F for search
	window.addEventListener("keydown",function (e) {
		if (e.keyCode === 114 || (e.ctrlKey && e.keyCode === 70)) {
			e.preventDefault();
			search_prompt();
		}
	}, false)

	// functions
	function find_child(node, selector) {
		var children = node.querySelectorAll(selector);
		if (children.length) return children[0];
		return;
	}
	function find_group(node) {
		var parent = node.parentElement;
		if (!parent) return;
		if (parent.id == "frames") return node;
		return find_group(parent);
	}
	function orig_save(e, attr, val) {
		if (e.attributes["_orig_" + attr] != undefined) return;
		if (e.attributes[attr] == undefined) return;
		if (val == undefined) val = e.attributes[attr].value;
		e.setAttribute("_orig_" + attr, val);
	}
	function orig_load(e, attr) {
		if (e.attributes["_orig_"+attr] == undefined) return;
		e.attributes[attr].value = e.attributes["_orig_" + attr].value;
		e.removeAttribute("_orig_"+attr);
	}
	function g_to_text(e) {
		var text = find_child(e, "title").firstChild.nodeValue;
		return (text)
	}
	function g_to_func(e) {
		var func = g_to_text(e);
		// if there's any manipulation we want to do to the function
		// name before it's searched, do it here before returning.
		return (func);
	}
	function update_text(e) {
		var r = find_child(e, "rect");
		var t = find_child(e, "text");
		var w = parseFloat(r.attributes.width.value) -3;
		var txt = find_child(e, "title").textContent.replace(/\([^(]*\)$/,"");
		t.attributes.x.value = parseFloat(r.attributes.x.value) + 3;

		// Smaller than this size won't fit anything
		if (w < 2 * 12 * 0.59) {
			t.textContent = "";
			return;
		}

		t.textContent = txt;
		// Fit in full text width
		if (/^ *$/.test(txt) || t.getSubStringLength(0, txt.length) < w)
			return;

		for (var x = txt.length - 2; x > 0; x--) {
			if (t.getSubStringLength(0, x + 2) <= w) {
				t.textContent = txt.substring(0, x) + "..";
				return;
			}
		}
		t.textContent = "";
	}

	// zoom
	function zoom_reset(e) {
		if (e.attributes != undefined) {
			orig_load(e, "x");
			orig_load(e, "width");
		}
		if (e.childNodes == undefined) return;
		for (var i = 0, c = e.childNodes; i < c.length; i++) {
			zoom_reset(c[i]);
		}
	}
	function zoom_child(e, x, ratio) {
		if (e.attributes != undefined) {
			if (e.attributes.x != undefined) {
				orig_save(e, "x");
				e.attributes.x.value = (parseFloat(e.attributes.x.value) - x - 10) * ratio + 10;
				if (e.tagName == "text")
					e.attributes.x.value = find_child(e.parentNode, "rect[x]").attributes.x.value + 3;
			}
			if (e.attributes.width != undefined) {
				orig_save(e, "width");
				e.attributes.width.value = parseFloat(e.attributes.width.value) * ratio;
			}
		}

		if (e.childNodes == undefined) return;
		for (var i = 0, c = e.childNodes; i < c.length; i++) {
			zoom_child(c[i], x - 10, ratio);
		}
	}
	function zoom_parent(e) {
		if (e.attributes) {
			if (e.attributes.x != undefined) {
				orig_save(e, "x");
				e.attributes.x.value = 10;
			}
			if (e.attributes.width != undefined) {
				orig_save(e, "width");
				e.attributes.width.value = parseInt(svg.width.baseVal.value) - (10 * 2);
			}
		}
		if (e.childNodes == undefined) return;
		for (var i = 0, c = e.childNodes; i < c.length; i++) {
			zoom_parent(c[i]);
		}
	}
	function zoom(node) {
		var attr = find_child(node, "rect").attributes;
		var width = parseFloat(attr.width.value);
		var xmin = parseFloat(attr.x.value);
		var xmax = parseFloat(xmin + width);
		var ymin = parseFloat(attr.y.value);
		var ratio = (svg.width.baseVal.value - 2 * 10) / width;

		// XXX: Workaround for JavaScript float issues (fix me)
		var fudge = 0.0001;

		unzoombtn.classList.remove("hide");

		var el = document.getElementById("frames").children;
		for (var i = 0; i < el.length; i++) {
			var e = el[i];
			var a = find_child(e, "rect").attributes;
			var ex = parseFloat(a.x.value);
			var ew = parseFloat(a.width.value);
			var upstack;
			// Is it an ancestor
			if (0 == 0) {
				upstack = parseFloat(a.y.value) > ymin;
			} else {
				upstack = parseFloat(a.y.value) < ymin;
			}
			if (upstack) {
				// Direct ancestor
				if (ex <= xmin && (ex+ew+fudge) >= xmax) {
					e.classList.add("parent");
					zoom_parent(e);
					update_text(e);
				}
				// not in current path
				else
					e.classList.add("hide");
			}
			// Children maybe
			else {
				// no common path
				if (ex < xmin || ex + fudge >= xmax) {
					e.classList.add("hide");
				}
				else {
					zoom_child(e, xmin, ratio);
					update_text(e);
				}
			}
		}
	}
	function unzoom() {
		unzoombtn.classList.add("hide");
		var el = document.getElementById("frames").children;
		for(var i = 0; i < el.length; i++) {
			el[i].classList.remove("parent");
			el[i].classList.remove("hide");
			zoom_reset(el[i]);
			update_text(el[i]);
		}
	}

	// search
	function reset_search() {
		var el = document.querySelectorAll("#frames rect");
		for (var i = 0; i < el.length; i++) {
			orig_load(el[i], "fill")
		}
	}
	function search_prompt() {
		if (!searching) {
			var term = prompt("Enter a search term (regexp " +
			    "allowed, eg: ^ext4_)", "");
			if (term != null) {
				search(term)
			}
		} else {
			reset_search();
			searching = 0;
			searchbtn.classList.remove("show");
			searchbtn.firstChild.nodeValue = "Search"
			matchedtxt.classList.add("hide");
			matchedtxt.firstChild.nodeValue = ""
		}
	}
	function search(term) {
		var re = new RegExp(term);
		var el = document.getElementById("frames").children;
		var matches = new Object();
		var maxwidth = 0;
		for (var i = 0; i < el.length; i++) {
			var e = el[i];
			var func = g_to_func(e);
			var rect = find_child(e, "rect");
			if (func == null || rect == null)
				continue;

			// Save max width. Only works as we have a root frame
			var w = parseFloat(rect.attributes.width.value);
			if (w > maxwidth)
				maxwidth = w;

			if (func.match(re)) {
				// highlight
				var x = parseFloat(rect.attributes.x.value);
				orig_save(rect, "fill");
				rect.attributes.fill.value = "rgb(230,0,230)";

				// remember matches
				if (matches[x] == undefined) {
					matches[x] = w;
				} else {
					if (w > matches[x]) {
						// overwrite with parent
						matches[x] = w;
					}
				}
				searching = 1;
			}
		}
		if (!searching)
			return;

		searchbtn.classList.add("show");
		searchbtn.firstChild.nodeValue = "Reset Search";

		// calculate percent matched, excluding vertical overlap
		var count = 0;
		var lastx = -1;
		var lastw = 0;
		var keys = Array();
		for (k in matches) {
			if (matches.hasOwnProperty(k))
				keys.push(k);
		}
		// sort the matched frames by their x location
		// ascending, then width descending
		keys.sort(function(a, b){
			return a - b;
		});
		// Step through frames saving only the biggest bottom-up frames
		// thanks to the sort order. This relies on the tree property
		// where children are always smaller than their parents.
		var fudge = 0.0001;	// JavaScript floating point
		for (var k in keys) {
			var x = parseFloat(keys[k]);
			var w = matches[keys[k]];
			if (x >= lastx + lastw - fudge) {
				count += w;
				lastx = x;
				lastw = w;
			}
		}
		// display matched percent
		matchedtxt.classList.remove("hide");
		var pct = 100 * count / maxwidth;
		if (pct != 100) pct = pct.toFixed(1)
		matchedtxt.firstChild.nodeValue = "Matched: " + pct + "%";
	}
]]>
</script>
<rect x="0" y="0" width="100%" height="100%" fill="rgb(240,240,220)"/>
<text id="title" x="600" y="24">Flame Graph</text>
<text id="details" x="10" y="357"> </text>
<text id="unzoom" x="10" y="24" class="hide">Reset Zoom</text>
<text id="search" x="1090" y="24">Search</text>
<text id="matched" x="1090" y="357"> </text>
<g id="frames">
<g>
<title>all (2,484 samples, 100.00%)</title><rect x="10.0" y="323.0" width="1180.0" height="15" fill="#fd7f7f" rx="2" ry="2"/>
<text x="13.0" y="334.0">all</text>
</g>
<g>
<title>java/lang/Thread.run (1,467 samples, 59.06%)</title><rect x="10.0" y="307.0" width="696.9" height="15" fill="#50e150" rx="2" ry="2"/>
<text x="13.0" y="318.0">java/lang/Thread.run</text>
</g>
<g>
<title>java/util/concurrent/ThreadPoolExecutor$Worker.run (1,467 samples, 59.06%)</title><rect x="10.0" y="291.0" width="696.9" height="15" fill="#51e251" rx="2" ry="2"/>
<text x="13.0" y="302.0">java/util/concurrent/ThreadPoolExecutor$Worker.run</text>
</g>
<g>
<title>java/util/concurrent/ThreadPoolExecutor.runWorker (1,467 samples, 59.06%)</title><rect x="10.0" y="275.0" width="696.9" height="15" fill="#5eef5e" rx="2" ry="2"/>
<text x="13.0" y="286.0">java/util/concurrent/ThreadPoolExecutor.runWorker</text>
</g>
<g>
<title>java/util/concurrent/ThreadPoolExecutor.getTask (140 samples, 5.64%)</title><rect x="10.0" y="259.0" width="66.5" height="15" fill="#5aeb5a" rx="2" ry="2"/>
<text x="13.0" y="270.0">java/ut..</text>
</g>
<g>
<title>java/util/concurrent/LinkedBlockingQueue.take (140 samples, 5.64%)</title><rect x="10.0" y="243.0" width="66.5" height="15" fill="#60f160" rx="2" ry="2"/>
<text x="13.0" y="254.0">java/ut..</text>
</g>
<g>
<title>java/util/concurrent/locks/AbstractQueuedSynchronizer$ConditionObject.await (137 samples, 5.52%)</title><rect x="10.0" y="227.0" width="65.1" height="15" fill="#6bfc6b" rx="2" ry="2"/>
<text x="13.0" y="238.0">java/ut..</text>
</g>
<g>
<title>java/util/concurrent/locks/AbstractQueuedSynchronizer$ConditionObject.addConditionWaiter (137 samples, 5.52%)</title><rect x="10.0" y="211.0" width="65.1" height="15" fill="#51e251" rx="2" ry="2"/>
<text x="13.0" y="222.0">java/ut..</text>
</g>
<g>
<title>java.util.concurrent.locks.AbstractQueuedSynchronizer$Node (137 samples, 5.52%)</title><rect x="10.0" y="195.0" width="65.1" height="15" fill="#61cfcf" rx="2" ry="2"/>
<text x="13.0" y="206.0">java.ut..</text>
</g>
<g>
<title>java/util/concurrent/locks/ReentrantLock.lockInterruptibly (3 samples, 0.12%)</title><rect x="75.1" y="227.0" width="1.4" height="15" fill="#6bfc6b" rx="2" ry="2"/>
<text x="78.1" y="238.0"></text>
</g>
<g>
<title>java/util/concurrent/locks/AbstractQueuedSynchronizer.acquireInterruptibly (3 samples, 0.12%)</title><rect x="75.1" y="211.0" width="1.4" height="15" fill="#58e958" rx="2" ry="2"/>
<text x="78.1" y="222.0"></text>
</g>
<g>
<title>java/util/concurrent/locks/AbstractQueuedSynchronizer.doAcquireInterruptibly (3 samples, 0.12%)</title><rect x="75.1" y="195.0" width="1.4" height="15" fill="#5ced5c" rx="2" ry="2"/>
<text x="78.1" y="206.0"></text>
</g>
<g>
<title>java/util/concurrent/locks/AbstractQueuedSynchronizer.addWaiter (3 samples, 0.12%)</title><rect x="75.1" y="179.0" width="1.4" height="15" fill="#52e352" rx="2" ry="2"/>
<text x="78.1" y="190.0"></text>
</g>
<g>
<title>java.util.concurrent.locks.AbstractQueuedSynchronizer$Node (3 samples, 0.12%)</title><rect x="75.1" y="163.0" width="1.4" height="15" fill="#53c1c1" rx="2" ry="2"/>
<text x="78.1" y="174.0"></text>
</g>
<g>
<title>ru/mail/polis/service/alex/AsyncServiceImpl$$Lambda$65/80866200.run (1,327 samples, 53.42%)</title><rect x="76.5" y="259.0" width="630.4" height="15" fill="#54e554" rx="2" ry="2"/>
<text x="79.5" y="270.0">ru/mail/polis/service/alex/AsyncServiceImpl$$Lambda$65/80866200.run</text>
</g>
<g>
<title>ru/mail/polis/service/alex/AsyncServiceImpl.lambda$executeAsync$3 (1,327 samples, 53.42%)</title><rect x="76.5" y="243.0" width="630.4" height="15" fill="#67f867" rx="2" ry="2"/>
<text x="79.5" y="254.0">ru/mail/polis/service/alex/AsyncServiceImpl.lambda$executeAsync$3</text>
</g>
<g>
<title>one/nio/http/HttpSession.sendResponse (547 samples, 22.02%)</title><rect x="76.5" y="227.0" width="259.9" height="15" fill="#5ff05f" rx="2" ry="2"/>
<text x="79.5" y="238.0">one/nio/http/HttpSession.sendResponse</text>
</g>
<g>
<title>one/nio/http/HttpSession.writeResponse (547 samples, 22.02%)</title><rect x="76.5" y="211.0" width="259.9" height="15" fill="#64f564" rx="2" ry="2"/>
<text x="79.5" y="222.0">one/nio/http/HttpSession.writeRespo..</text>
</g>
<g>
<title>one/nio/http/Response.toBytes (377 samples, 15.18%)</title><rect x="76.5" y="195.0" width="179.1" height="15" fill="#54e554" rx="2" ry="2"/>
<text x="79.5" y="206.0">one/nio/http/Response.t..</text>
</g>
<g>
<title>one/nio/util/ByteArrayBuilder.&lt;init&gt; (377 samples, 15.18%)</title><rect x="76.5" y="179.0" width="179.1" height="15" fill="#53e453" rx="2" ry="2"/>
<text x="79.5" y="190.0">one/nio/util/ByteArrayB..</text>
</g>
<g>
<title>byte[] (377 samples, 15.18%)</title><rect x="76.5" y="163.0" width="179.1" height="15" fill="#5dcbcb" rx="2" ry="2"/>
<text x="79.5" y="174.0">byte[]</text>
</g>
<g>
<title>one/nio/net/Session.write (170 samples, 6.84%)</title><rect x="255.6" y="195.0" width="80.8" height="15" fill="#6dfe6d" rx="2" ry="2"/>
<text x="258.6" y="206.0">one/nio/n..</text>
</g>
<g>
<title>one.nio.net.Session$ArrayQueueItem (170 samples, 6.84%)</title><rect x="255.6" y="179.0" width="80.8" height="15" fill="#5fcdcd" rx="2" ry="2"/>
<text x="258.6" y="190.0">one.nio.n..</text>
</g>
<g>
<title>ru/mail/polis/service/alex/AsyncServiceImpl$$Lambda$86/1397931477.action (780 samples, 31.40%)</title><rect x="336.4" y="227.0" width="370.5" height="15" fill="#67f867" rx="2" ry="2"/>
<text x="339.4" y="238.0">ru/mail/polis/service/alex/AsyncServiceImpl$$Lambd..</text>
</g>
<g>
<title>ru/mail/polis/service/alex/AsyncServiceImpl.lambda$entity$2 (780 samples, 31.40%)</title><rect x="336.4" y="211.0" width="370.5" height="15" fill="#65f665" rx="2" ry="2"/>
<text x="339.4" y="222.0">ru/mail/polis/service/alex/AsyncServiceImpl.lambda..</text>
</g>
<g>
<title>ru/mail/polis/service/alex/AsyncServiceImpl.delete (780 samples, 31.40%)</title><rect x="336.4" y="195.0" width="370.5" height="15" fill="#51e251" rx="2" ry="2"/>
<text x="339.4" y="206.0">ru/mail/polis/service/alex/AsyncServiceImpl.delete</text>
</g>
<g>
<title>one.nio.http.Response (106 samples, 4.27%)</title><rect x="336.4" y="179.0" width="50.3" height="15" fill="#67d5d5" rx="2" ry="2"/>
<text x="339.4" y="190.0">one.n..</text>
</g>
<g>
<title>one/nio/http/Response.&lt;init&gt; (374 samples, 15.06%)</title><rect x="386.7" y="179.0" width="177.7" height="15" fill="#64f564" rx="2" ry="2"/>
<text x="389.7" y="190.0">one/nio/http/Response.&lt;..</text>
</g>
<g>
<title>byte[] (164 samples, 6.60%)</title><rect x="386.7" y="163.0" width="77.9" height="15" fill="#6ad8d8" rx="2" ry="2"/>
<text x="389.7" y="174.0">byte[]</text>
</g>
<g>
<title>java.lang.String[] (129 samples, 5.19%)</title><rect x="464.6" y="163.0" width="61.3" height="15" fill="#66d4d4" rx="2" ry="2"/>
<text x="467.6" y="174.0">java.l..</text>
</g>
<g>
<title>java.lang.String (81 samples, 3.26%)</title><rect x="525.9" y="163.0" width="38.5" height="15" fill="#5bc9c9" rx="2" ry="2"/>
<text x="528.9" y="174.0">jav..</text>
</g>
<g>
<title>ru/mail/polis/dao/alex/AlexDAO.remove (300 samples, 12.08%)</title><rect x="564.4" y="179.0" width="142.5" height="15" fill="#68f968" rx="2" ry="2"/>
<text x="567.4" y="190.0">ru/mail/polis/dao/..</text>
</g>
<g>
<title>ru/mail/polis/dao/alex/MemTablePool.remove (300 samples, 12.08%)</title><rect x="564.4" y="163.0" width="142.5" height="15" fill="#66f766" rx="2" ry="2"/>
<text x="567.4" y="174.0">ru/mail/polis/dao/..</text>
</g>
<g>
<title>java/util/concurrent/locks/ReentrantReadWriteLock$ReadLock.lock (15 samples, 0.60%)</title><rect x="564.4" y="147.0" width="7.1" height="15" fill="#5dee5d" rx="2" ry="2"/>
<text x="567.4" y="158.0"></text>
</g>
<g>
<title>java/util/concurrent/locks/AbstractQueuedSynchronizer.acquireShared (15 samples, 0.60%)</title><rect x="564.4" y="131.0" width="7.1" height="15" fill="#59ea59" rx="2" ry="2"/>
<text x="567.4" y="142.0"></text>
</g>
<g>
<title>java/util/concurrent/locks/ReentrantReadWriteLock$Sync.tryAcquireShared (15 samples, 0.60%)</title><rect x="564.4" y="115.0" width="7.1" height="15" fill="#52e352" rx="2" ry="2"/>
<text x="567.4" y="126.0"></text>
</g>
<g>
<title>java/lang/ThreadLocal.get (12 samples, 0.48%)</title><rect x="564.4" y="99.0" width="5.7" height="15" fill="#6dfe6d" rx="2" ry="2"/>
<text x="567.4" y="110.0"></text>
</g>
<g>
<title>java/lang/ThreadLocal.setInitialValue (12 samples, 0.48%)</title><rect x="564.4" y="83.0" width="5.7" height="15" fill="#57e857" rx="2" ry="2"/>
<text x="567.4" y="94.0"></text>
</g>
<g>
<title>java/lang/ThreadLocal$ThreadLocalMap.set (6 samples, 0.24%)</title><rect x="564.4" y="67.0" width="2.8" height="15" fill="#54e554" rx="2" ry="2"/>
<text x="567.4" y="78.0"></text>
</g>
<g>
<title>java.lang.ThreadLocal$ThreadLocalMap$Entry (6 samples, 0.24%)</title><rect x="564.4" y="51.0" width="2.8" height="15" fill="#60cece" rx="2" ry="2"/>
<text x="567.4" y="62.0"></text>
</g>
<g>
<title>java/util/concurrent/locks/ReentrantReadWriteLock$Sync$ThreadLocalHoldCounter.initialValue (6 samples, 0.24%)</title><rect x="567.2" y="67.0" width="2.9" height="15" fill="#55e655" rx="2" ry="2"/>
<text x="570.2" y="78.0"></text>
</g>
<g>
<title>java/util/concurrent/locks/ReentrantReadWriteLock$Sync$ThreadLocalHoldCounter.initialValue (6 samples, 0.24%)</title><rect x="567.2" y="51.0" width="2.9" height="15" fill="#5ced5c" rx="2" ry="2"/>
<text x="570.2" y="62.0"></text>
</g>
<g>
<title>java.util.concurrent.locks.ReentrantReadWriteLock$Sync$HoldCounter (6 samples, 0.24%)</title><rect x="567.2" y="35.0" width="2.9" height="15" fill="#6ddbdb" rx="2" ry="2"/>
<text x="570.2" y="46.0"></text>
</g>
<g>
<title>java/lang/ThreadLocal.set (3 samples, 0.12%)</title><rect x="570.1" y="99.0" width="1.4" height="15" fill="#57e857" rx="2" ry="2"/>
<text x="573.1" y="110.0"></text>
</g>
<g>
<title>java/lang/ThreadLocal$ThreadLocalMap.set (3 samples, 0.12%)</title><rect x="570.1" y="83.0" width="1.4" height="15" fill="#60f160" rx="2" ry="2"/>
<text x="573.1" y="94.0"></text>
</g>
<g>
<title>java.lang.ThreadLocal$ThreadLocalMap$Entry (3 samples, 0.12%)</title><rect x="570.1" y="67.0" width="1.4" height="15" fill="#53c1c1" rx="2" ry="2"/>
<text x="573.1" y="78.0"></text>
</g>
<g>
<title>ru/mail/polis/dao/alex/MemTable.remove (285 samples, 11.47%)</title><rect x="571.5" y="147.0" width="135.4" height="15" fill="#50e150" rx="2" ry="2"/>
<text x="574.5" y="158.0">ru/mail/polis/dao..</text>
</g>
<g>
<title>ru/mail/polis/dao/alex/Row.of (146 samples, 5.88%)</title><rect x="571.5" y="131.0" width="69.4" height="15" fill="#51e251" rx="2" ry="2"/>
<text x="574.5" y="142.0">ru/mail..</text>
</g>
<g>
<title>ru.mail.polis.dao.alex.Row (146 samples, 5.88%)</title><rect x="571.5" y="115.0" width="69.4" height="15" fill="#68d6d6" rx="2" ry="2"/>
<text x="574.5" y="126.0">ru.mail..</text>
</g>
<g>
<title>ru/mail/polis/dao/alex/Value.getData (48 samples, 1.93%)</title><rect x="640.9" y="131.0" width="22.8" height="15" fill="#55e655" rx="2" ry="2"/>
<text x="643.9" y="142.0">r..</text>
</g>
<g>
<title>java/nio/HeapByteBuffer.asReadOnlyBuffer (48 samples, 1.93%)</title><rect x="640.9" y="115.0" width="22.8" height="15" fill="#55e655" rx="2" ry="2"/>
<text x="643.9" y="126.0">j..</text>
</g>
<g>
<title>java.nio.HeapByteBufferR (48 samples, 1.93%)</title><rect x="640.9" y="99.0" width="22.8" height="15" fill="#58c6c6" rx="2" ry="2"/>
<text x="643.9" y="110.0">j..</text>
</g>
<g>
<title>ru/mail/polis/dao/alex/Value.tombstone (91 samples, 3.66%)</title><rect x="663.7" y="131.0" width="43.2" height="15" fill="#54e554" rx="2" ry="2"/>
<text x="666.7" y="142.0">ru/m..</text>
</g>
<g>
<title>ru.mail.polis.dao.alex.Value (91 samples, 3.66%)</title><rect x="663.7" y="115.0" width="43.2" height="15" fill="#64d2d2" rx="2" ry="2"/>
<text x="666.7" y="126.0">ru.m..</text>
</g>
<g>
<title>one/nio/server/AcceptorThread.run (1 samples, 0.04%)</title><rect x="706.9" y="307.0" width="0.5" height="15" fill="#51e251" rx="2" ry="2"/>
<text x="709.9" y="318.0"></text>
</g>
<g>
<title>ru/mail/polis/service/alex/AsyncServiceImpl.createSession (1 samples, 0.04%)</title><rect x="706.9" y="291.0" width="0.5" height="15" fill="#6afb6a" rx="2" ry="2"/>
<text x="709.9" y="302.0"></text>
</g>
<g>
<title>ru/mail/polis/service/alex/AsyncServiceImpl.createSession (1 samples, 0.04%)</title><rect x="706.9" y="275.0" width="0.5" height="15" fill="#65f665" rx="2" ry="2"/>
<text x="709.9" y="286.0"></text>
</g>
<g>
<title>ru.mail.polis.service.alex.StorageSession (1 samples, 0.04%)</title><rect x="706.9" y="259.0" width="0.5" height="15" fill="#69d7d7" rx="2" ry="2"/>
<text x="709.9" y="270.0"></text>
</g>
<g>
<title>one/nio/server/SelectorThread.run (1,016 samples, 40.90%)</title><rect x="707.4" y="307.0" width="482.6" height="15" fill="#61f261" rx="2" ry="2"/>
<text x="710.4" y="318.0">one/nio/server/SelectorThread.run</text>
</g>
<g>
<title>one/nio/net/NativeSelector.select (62 samples, 2.50%)</title><rect x="707.4" y="291.0" width="29.4" height="15" fill="#62f362" rx="2" ry="2"/>
<text x="710.4" y="302.0">on..</text>
</g>
<g>
<title>one.nio.net.NativeSelector$2 (62 samples, 2.50%)</title><rect x="707.4" y="275.0" width="29.4" height="15" fill="#62d0d0" rx="2" ry="2"/>
<text x="710.4" y="286.0">on..</text>
</g>
<g>
<title>one/nio/net/Session.process (954 samples, 38.41%)</title><rect x="736.8" y="291.0" width="453.2" height="15" fill="#6cfd6c" rx="2" ry="2"/>
<text x="739.8" y="302.0">one/nio/net/Session.process</text>
</g>
<g>
<title>one/nio/http/HttpSession.processRead (954 samples, 38.41%)</title><rect x="736.8" y="275.0" width="453.2" height="15" fill="#5dee5d" rx="2" ry="2"/>
<text x="739.8" y="286.0">one/nio/http/HttpSession.processRead</text>
</g>
<g>
<title>one/nio/http/HttpSession.processHttpBuffer (954 samples, 38.41%)</title><rect x="736.8" y="259.0" width="453.2" height="15" fill="#5bec5b" rx="2" ry="2"/>
<text x="739.8" y="270.0">one/nio/http/HttpSession.processHttpBuffer</text>
</g>
<g>
<title>one/nio/http/HttpSession.handleParsedRequest (351 samples, 14.13%)</title><rect x="736.8" y="243.0" width="166.8" height="15" fill="#5ced5c" rx="2" ry="2"/>
<text x="739.8" y="254.0">one/nio/http/HttpSess..</text>
</g>
<g>
<title>one/nio/http/HttpServer.handleRequest (351 samples, 14.13%)</title><rect x="736.8" y="227.0" width="166.8" height="15" fill="#67f867" rx="2" ry="2"/>
<text x="739.8" y="238.0">one/nio/http/HttpServ..</text>
</g>
<g>
<title>RequestHandler1_entity.handleRequest (276 samples, 11.11%)</title><rect x="736.8" y="211.0" width="131.1" height="15" fill="#5dee5d" rx="2" ry="2"/>
<text x="739.8" y="222.0">RequestHandler1_..</text>
</g>
<g>
<title>one/nio/http/Request.getParameter (63 samples, 2.54%)</title><rect x="736.8" y="195.0" width="29.9" height="15" fill="#5bec5b" rx="2" ry="2"/>
<text x="739.8" y="206.0">on..</text>
</g>
<g>
<title>java/lang/String.substring (63 samples, 2.54%)</title><rect x="736.8" y="179.0" width="29.9" height="15" fill="#50e150" rx="2" ry="2"/>
<text x="739.8" y="190.0">ja..</text>
</g>
<g>
<title>java/lang/StringLatin1.newString (63 samples, 2.54%)</title><rect x="736.8" y="163.0" width="29.9" height="15" fill="#62f362" rx="2" ry="2"/>
<text x="739.8" y="174.0">ja..</text>
</g>
<g>
<title>java.lang.String (27 samples, 1.09%)</title><rect x="736.8" y="147.0" width="12.8" height="15" fill="#6cdada" rx="2" ry="2"/>
<text x="739.8" y="158.0"></text>
</g>
<g>
<title>java/util/Arrays.copyOfRange (36 samples, 1.45%)</title><rect x="749.6" y="147.0" width="17.1" height="15" fill="#55e655" rx="2" ry="2"/>
<text x="752.6" y="158.0"></text>
</g>
<g>
<title>byte[] (36 samples, 1.45%)</title><rect x="749.6" y="131.0" width="17.1" height="15" fill="#51bfbf" rx="2" ry="2"/>
<text x="752.6" y="142.0"></text>
</g>
<g>
<title>ru/mail/polis/service/alex/AsyncServiceImpl.entity (213 samples, 8.57%)</title><rect x="766.7" y="195.0" width="101.2" height="15" fill="#6cfd6c" rx="2" ry="2"/>
<text x="769.7" y="206.0">ru/mail/poli..</text>
</g>
<g>
<title>java/lang/String.getBytes (33 samples, 1.33%)</title><rect x="766.7" y="179.0" width="15.7" height="15" fill="#5ced5c" rx="2" ry="2"/>
<text x="769.7" y="190.0"></text>
</g>
<g>
<title>java/lang/StringCoding.encode (33 samples, 1.33%)</title><rect x="766.7" y="163.0" width="15.7" height="15" fill="#61f261" rx="2" ry="2"/>
<text x="769.7" y="174.0"></text>
</g>
<g>
<title>java/lang/StringCoding.encodeUTF8 (33 samples, 1.33%)</title><rect x="766.7" y="147.0" width="15.7" height="15" fill="#52e352" rx="2" ry="2"/>
<text x="769.7" y="158.0"></text>
</g>
<g>
<title>java/util/Arrays.copyOf (33 samples, 1.33%)</title><rect x="766.7" y="131.0" width="15.7" height="15" fill="#5dee5d" rx="2" ry="2"/>
<text x="769.7" y="142.0"></text>
</g>
<g>
<title>byte[] (33 samples, 1.33%)</title><rect x="766.7" y="115.0" width="15.7" height="15" fill="#63d1d1" rx="2" ry="2"/>
<text x="769.7" y="126.0"></text>
</g>
<g>
<title>java/lang/invoke/Invokers$Holder.linkToTargetMethod (38 samples, 1.53%)</title><rect x="782.4" y="179.0" width="18.1" height="15" fill="#6afb6a" rx="2" ry="2"/>
<text x="785.4" y="190.0"></text>
</g>
<g>
<title>java/lang/invoke/DirectMethodHandle$Holder.invokeStatic (38 samples, 1.53%)</title><rect x="782.4" y="163.0" width="18.1" height="15" fill="#62f362" rx="2" ry="2"/>
<text x="785.4" y="174.0"></text>
</g>
<g>
<title>ru/mail/polis/service/alex/AsyncServiceImpl$$Lambda$86/1397931477.get$Lambda (38 samples, 1.53%)</title><rect x="782.4" y="147.0" width="18.1" height="15" fill="#68f968" rx="2" ry="2"/>
<text x="785.4" y="158.0"></text>
</g>
<g>
<title>ru.mail.polis.service.alex.AsyncServiceImpl$$Lambda$86 (38 samples, 1.53%)</title><rect x="782.4" y="131.0" width="18.1" height="15" fill="#54c2c2" rx="2" ry="2"/>
<text x="785.4" y="142.0"></text>
</g>
<g>
<title>java/nio/ByteBuffer.wrap (74 samples, 2.98%)</title><rect x="800.5" y="179.0" width="35.1" height="15" fill="#67f867" rx="2" ry="2"/>
<text x="803.5" y="190.0">jav..</text>
</g>
<g>
<title>java/nio/ByteBuffer.wrap (74 samples, 2.98%)</title><rect x="800.5" y="163.0" width="35.1" height="15" fill="#5ff05f" rx="2" ry="2"/>
<text x="803.5" y="174.0">jav..</text>
</g>
<g>
<title>java.nio.HeapByteBuffer (74 samples, 2.98%)</title><rect x="800.5" y="147.0" width="35.1" height="15" fill="#55c3c3" rx="2" ry="2"/>
<text x="803.5" y="158.0">jav..</text>
</g>
<g>
<title>ru/mail/polis/service/alex/AsyncServiceImpl.executeAsync (68 samples, 2.74%)</title><rect x="835.6" y="179.0" width="32.3" height="15" fill="#64f564" rx="2" ry="2"/>
<text x="838.6" y="190.0">ru..</text>
</g>
<g>
<title>java/lang/invoke/Invokers$Holder.linkToTargetMethod (36 samples, 1.45%)</title><rect x="835.6" y="163.0" width="17.1" height="15" fill="#57e857" rx="2" ry="2"/>
<text x="838.6" y="174.0"></text>
</g>
<g>
<title>java/lang/invoke/DirectMethodHandle$Holder.invokeStatic (36 samples, 1.45%)</title><rect x="835.6" y="147.0" width="17.1" height="15" fill="#51e251" rx="2" ry="2"/>
<text x="838.6" y="158.0"></text>
</g>
<g>
<title>ru/mail/polis/service/alex/AsyncServiceImpl$$Lambda$65/80866200.get$Lambda (36 samples, 1.45%)</title><rect x="835.6" y="131.0" width="17.1" height="15" fill="#57e857" rx="2" ry="2"/>
<text x="838.6" y="142.0"></text>
</g>
<g>
<title>ru.mail.polis.service.alex.AsyncServiceImpl$$Lambda$65 (36 samples, 1.45%)</title><rect x="835.6" y="115.0" width="17.1" height="15" fill="#69d7d7" rx="2" ry="2"/>
<text x="838.6" y="126.0"></text>
</g>
<g>
<title>java/util/concurrent/ThreadPoolExecutor.execute (32 samples, 1.29%)</title><rect x="852.7" y="163.0" width="15.2" height="15" fill="#63f463" rx="2" ry="2"/>
<text x="855.7" y="174.0"></text>
</g>
<g>
<title>java/util/concurrent/LinkedBlockingQueue.offer (32 samples, 1.29%)</title><rect x="852.7" y="147.0" width="15.2" height="15" fill="#55e655" rx="2" ry="2"/>
<text x="855.7" y="158.0"></text>
</g>
<g>
<title>java.util.concurrent.LinkedBlockingQueue$Node (32 samples, 1.29%)</title><rect x="852.7" y="131.0" width="15.2" height="15" fill="#58c6c6" rx="2" ry="2"/>
<text x="855.7" y="142.0"></text>
</g>
<g>
<title>one/nio/http/Request.getPath (75 samples, 3.02%)</title><rect x="867.9" y="211.0" width="35.7" height="15" fill="#50e150" rx="2" ry="2"/>
<text x="870.9" y="222.0">one..</text>
</g>
<g>
<title>java/lang/String.substring (75 samples, 3.02%)</title><rect x="867.9" y="195.0" width="35.7" height="15" fill="#61f261" rx="2" ry="2"/>
<text x="870.9" y="206.0">jav..</text>
</g>
<g>
<title>java/lang/StringLatin1.newString (75 samples, 3.02%)</title><rect x="867.9" y="179.0" width="35.7" height="15" fill="#51e251" rx="2" ry="2"/>
<text x="870.9" y="190.0">jav..</text>
</g>
<g>
<title>java.lang.String (29 samples, 1.17%)</title><rect x="867.9" y="163.0" width="13.8" height="15" fill="#5ecccc" rx="2" ry="2"/>
<text x="870.9" y="174.0"></text>
</g>
<g>
<title>java/util/Arrays.copyOfRange (46 samples, 1.85%)</title><rect x="881.7" y="163.0" width="21.9" height="15" fill="#6dfe6d" rx="2" ry="2"/>
<text x="884.7" y="174.0">j..</text>
</g>
<g>
<title>byte[] (46 samples, 1.85%)</title><rect x="881.7" y="147.0" width="21.9" height="15" fill="#52c0c0" rx="2" ry="2"/>
<text x="884.7" y="158.0">b..</text>
</g>
<g>
<title>one/nio/http/HttpSession.parseRequest (438 samples, 17.63%)</title><rect x="903.6" y="243.0" width="208.0" height="15" fill="#53e453" rx="2" ry="2"/>
<text x="906.6" y="254.0">one/nio/http/HttpSession.pa..</text>
</g>
<g>
<title>one.nio.http.Request (71 samples, 2.86%)</title><rect x="903.6" y="227.0" width="33.7" height="15" fill="#6cdada" rx="2" ry="2"/>
<text x="906.6" y="238.0">on..</text>
</g>
<g>
<title>one/nio/http/Request.&lt;init&gt; (108 samples, 4.35%)</title><rect x="937.3" y="227.0" width="51.3" height="15" fill="#57e857" rx="2" ry="2"/>
<text x="940.3" y="238.0">one/n..</text>
</g>
<g>
<title>java.lang.String[] (108 samples, 4.35%)</title><rect x="937.3" y="211.0" width="51.3" height="15" fill="#54c2c2" rx="2" ry="2"/>
<text x="940.3" y="222.0">java...</text>
</g>
<g>
<title>one/nio/util/Utf8.read (259 samples, 10.43%)</title><rect x="988.6" y="227.0" width="123.0" height="15" fill="#6afb6a" rx="2" ry="2"/>
<text x="991.6" y="238.0">one/nio/util/Ut..</text>
</g>
<g>
<title>one/nio/util/Utf8.read (259 samples, 10.43%)</title><rect x="988.6" y="211.0" width="123.0" height="15" fill="#64f564" rx="2" ry="2"/>
<text x="991.6" y="222.0">one/nio/util/Ut..</text>
</g>
<g>
<title>char[] (152 samples, 6.12%)</title><rect x="988.6" y="195.0" width="72.2" height="15" fill="#66d4d4" rx="2" ry="2"/>
<text x="991.6" y="206.0">char[]</text>
</g>
<g>
<title>java.lang.String (36 samples, 1.45%)</title><rect x="1060.8" y="195.0" width="17.1" height="15" fill="#6cdada" rx="2" ry="2"/>
<text x="1063.8" y="206.0"></text>
</g>
<g>
<title>java/lang/String.&lt;init&gt; (71 samples, 2.86%)</title><rect x="1077.9" y="195.0" width="33.7" height="15" fill="#53e453" rx="2" ry="2"/>
<text x="1080.9" y="206.0">ja..</text>
</g>
<g>
<title>java/lang/String.&lt;init&gt; (71 samples, 2.86%)</title><rect x="1077.9" y="179.0" width="33.7" height="15" fill="#5ced5c" rx="2" ry="2"/>
<text x="1080.9" y="190.0">ja..</text>
</g>
<g>
<title>java/lang/StringUTF16.compress (71 samples, 2.86%)</title><rect x="1077.9" y="163.0" width="33.7" height="15" fill="#69fa69" rx="2" ry="2"/>
<text x="1080.9" y="174.0">ja..</text>
</g>
<g>
<title>byte[] (71 samples, 2.86%)</title><rect x="1077.9" y="147.0" width="33.7" height="15" fill="#66d4d4" rx="2" ry="2"/>
<text x="1080.9" y="158.0">by..</text>
</g>
<g>
<title>one/nio/util/Utf8.read (165 samples, 6.64%)</title><rect x="1111.6" y="243.0" width="78.4" height="15" fill="#56e756" rx="2" ry="2"/>
<text x="1114.6" y="254.0">one/nio/u..</text>
</g>
<g>
<title>one/nio/util/Utf8.read (165 samples, 6.64%)</title><rect x="1111.6" y="227.0" width="78.4" height="15" fill="#6dfe6d" rx="2" ry="2"/>
<text x="1114.6" y="238.0">one/nio/u..</text>
</g>
<g>
<title>char[] (75 samples, 3.02%)</title><rect x="1111.6" y="211.0" width="35.6" height="15" fill="#5fcdcd" rx="2" ry="2"/>
<text x="1114.6" y="222.0">cha..</text>
</g>
<g>
<title>java.lang.String (30 samples, 1.21%)</title><rect x="1147.2" y="211.0" width="14.3" height="15" fill="#65d3d3" rx="2" ry="2"/>
<text x="1150.2" y="222.0"></text>
</g>
<g>
<title>java/lang/String.&lt;init&gt; (60 samples, 2.42%)</title><rect x="1161.5" y="211.0" width="28.5" height="15" fill="#55e655" rx="2" ry="2"/>
<text x="1164.5" y="222.0">ja..</text>
</g>
<g>
<title>java/lang/String.&lt;init&gt; (60 samples, 2.42%)</title><rect x="1161.5" y="195.0" width="28.5" height="15" fill="#56e756" rx="2" ry="2"/>
<text x="1164.5" y="206.0">ja..</text>
</g>
<g>
<title>java/lang/StringUTF16.compress (60 samples, 2.42%)</title><rect x="1161.5" y="179.0" width="28.5" height="15" fill="#6cfd6c" rx="2" ry="2"/>
<text x="1164.5" y="190.0">ja..</text>
</g>
<g>
<title>byte[] (60 samples, 2.42%)</title><rect x="1161.5" y="163.0" width="28.5" height="15" fill="#57c5c5" rx="2" ry="2"/>
<text x="1164.5" y="174.0">by..</text>
</g>
</g>
</svg>
