<?xml version="1.0" standalone="no"?>
<!DOCTYPE svg PUBLIC "-//W3C//DTD SVG 1.1//EN" "http://www.w3.org/Graphics/SVG/1.1/DTD/svg11.dtd">
<svg version="1.1" width="1200" height="358" onload="init(evt)" viewBox="0 0 1200 358" xmlns="http://www.w3.org/2000/svg" xmlns:xlink="http://www.w3.org/1999/xlink">
<style type="text/css">
	text { font-family:Verdana; font-size:12px; fill:rgb(0,0,0); }
	#search { opacity:0.1; cursor:pointer; }
	#search:hover, #search.show { opacity:1; }
	#subtitle { text-anchor:middle; font-color:rgb(160,160,160); }
	#title { text-anchor:middle; font-size:17px}
	#unzoom { cursor:pointer; }
	#frames > *:hover { stroke:black; stroke-width:0.5; cursor:pointer; }
	.hide { display:none; }
	.parent { opacity:0.5; }
</style>
<script type="text/ecmascript">
<![CDATA[
	"use strict";
	var details, searchbtn, unzoombtn, matchedtxt, svg, searching;
	function init(evt) {
		details = document.getElementById("details").firstChild;
		searchbtn = document.getElementById("search");
		unzoombtn = document.getElementById("unzoom");
		matchedtxt = document.getElementById("matched");
		svg = document.getElementsByTagName("svg")[0];
		searching = 0;
	}

	window.addEventListener("click", function(e) {
		var target = find_group(e.target);
		if (target) {
			if (target.nodeName == "a") {
				if (e.ctrlKey === false) return;
				e.preventDefault();
			}
			if (target.classList.contains("parent")) unzoom();
			zoom(target);
		}
		else if (e.target.id == "unzoom") unzoom();
		else if (e.target.id == "search") search_prompt();
	}, false)

	// mouse-over for info
	// show
	window.addEventListener("mouseover", function(e) {
		var target = find_group(e.target);
		if (target) details.nodeValue = "Function: " + g_to_text(target);
	}, false)

	// clear
	window.addEventListener("mouseout", function(e) {
		var target = find_group(e.target);
		if (target) details.nodeValue = ' ';
	}, false)

	// ctrl-F for search
	window.addEventListener("keydown",function (e) {
		if (e.keyCode === 114 || (e.ctrlKey && e.keyCode === 70)) {
			e.preventDefault();
			search_prompt();
		}
	}, false)

	// functions
	function find_child(node, selector) {
		var children = node.querySelectorAll(selector);
		if (children.length) return children[0];
		return;
	}
	function find_group(node) {
		var parent = node.parentElement;
		if (!parent) return;
		if (parent.id == "frames") return node;
		return find_group(parent);
	}
	function orig_save(e, attr, val) {
		if (e.attributes["_orig_" + attr] != undefined) return;
		if (e.attributes[attr] == undefined) return;
		if (val == undefined) val = e.attributes[attr].value;
		e.setAttribute("_orig_" + attr, val);
	}
	function orig_load(e, attr) {
		if (e.attributes["_orig_"+attr] == undefined) return;
		e.attributes[attr].value = e.attributes["_orig_" + attr].value;
		e.removeAttribute("_orig_"+attr);
	}
	function g_to_text(e) {
		var text = find_child(e, "title").firstChild.nodeValue;
		return (text)
	}
	function g_to_func(e) {
		var func = g_to_text(e);
		// if there's any manipulation we want to do to the function
		// name before it's searched, do it here before returning.
		return (func);
	}
	function update_text(e) {
		var r = find_child(e, "rect");
		var t = find_child(e, "text");
		var w = parseFloat(r.attributes.width.value) -3;
		var txt = find_child(e, "title").textContent.replace(/\([^(]*\)$/,"");
		t.attributes.x.value = parseFloat(r.attributes.x.value) + 3;

		// Smaller than this size won't fit anything
		if (w < 2 * 12 * 0.59) {
			t.textContent = "";
			return;
		}

		t.textContent = txt;
		// Fit in full text width
		if (/^ *$/.test(txt) || t.getSubStringLength(0, txt.length) < w)
			return;

		for (var x = txt.length - 2; x > 0; x--) {
			if (t.getSubStringLength(0, x + 2) <= w) {
				t.textContent = txt.substring(0, x) + "..";
				return;
			}
		}
		t.textContent = "";
	}

	// zoom
	function zoom_reset(e) {
		if (e.attributes != undefined) {
			orig_load(e, "x");
			orig_load(e, "width");
		}
		if (e.childNodes == undefined) return;
		for (var i = 0, c = e.childNodes; i < c.length; i++) {
			zoom_reset(c[i]);
		}
	}
	function zoom_child(e, x, ratio) {
		if (e.attributes != undefined) {
			if (e.attributes.x != undefined) {
				orig_save(e, "x");
				e.attributes.x.value = (parseFloat(e.attributes.x.value) - x - 10) * ratio + 10;
				if (e.tagName == "text")
					e.attributes.x.value = find_child(e.parentNode, "rect[x]").attributes.x.value + 3;
			}
			if (e.attributes.width != undefined) {
				orig_save(e, "width");
				e.attributes.width.value = parseFloat(e.attributes.width.value) * ratio;
			}
		}

		if (e.childNodes == undefined) return;
		for (var i = 0, c = e.childNodes; i < c.length; i++) {
			zoom_child(c[i], x - 10, ratio);
		}
	}
	function zoom_parent(e) {
		if (e.attributes) {
			if (e.attributes.x != undefined) {
				orig_save(e, "x");
				e.attributes.x.value = 10;
			}
			if (e.attributes.width != undefined) {
				orig_save(e, "width");
				e.attributes.width.value = parseInt(svg.width.baseVal.value) - (10 * 2);
			}
		}
		if (e.childNodes == undefined) return;
		for (var i = 0, c = e.childNodes; i < c.length; i++) {
			zoom_parent(c[i]);
		}
	}
	function zoom(node) {
		var attr = find_child(node, "rect").attributes;
		var width = parseFloat(attr.width.value);
		var xmin = parseFloat(attr.x.value);
		var xmax = parseFloat(xmin + width);
		var ymin = parseFloat(attr.y.value);
		var ratio = (svg.width.baseVal.value - 2 * 10) / width;

		// XXX: Workaround for JavaScript float issues (fix me)
		var fudge = 0.0001;

		unzoombtn.classList.remove("hide");

		var el = document.getElementById("frames").children;
		for (var i = 0; i < el.length; i++) {
			var e = el[i];
			var a = find_child(e, "rect").attributes;
			var ex = parseFloat(a.x.value);
			var ew = parseFloat(a.width.value);
			var upstack;
			// Is it an ancestor
			if (0 == 0) {
				upstack = parseFloat(a.y.value) > ymin;
			} else {
				upstack = parseFloat(a.y.value) < ymin;
			}
			if (upstack) {
				// Direct ancestor
				if (ex <= xmin && (ex+ew+fudge) >= xmax) {
					e.classList.add("parent");
					zoom_parent(e);
					update_text(e);
				}
				// not in current path
				else
					e.classList.add("hide");
			}
			// Children maybe
			else {
				// no common path
				if (ex < xmin || ex + fudge >= xmax) {
					e.classList.add("hide");
				}
				else {
					zoom_child(e, xmin, ratio);
					update_text(e);
				}
			}
		}
	}
	function unzoom() {
		unzoombtn.classList.add("hide");
		var el = document.getElementById("frames").children;
		for(var i = 0; i < el.length; i++) {
			el[i].classList.remove("parent");
			el[i].classList.remove("hide");
			zoom_reset(el[i]);
			update_text(el[i]);
		}
	}

	// search
	function reset_search() {
		var el = document.querySelectorAll("#frames rect");
		for (var i = 0; i < el.length; i++) {
			orig_load(el[i], "fill")
		}
	}
	function search_prompt() {
		if (!searching) {
			var term = prompt("Enter a search term (regexp " +
			    "allowed, eg: ^ext4_)", "");
			if (term != null) {
				search(term)
			}
		} else {
			reset_search();
			searching = 0;
			searchbtn.classList.remove("show");
			searchbtn.firstChild.nodeValue = "Search"
			matchedtxt.classList.add("hide");
			matchedtxt.firstChild.nodeValue = ""
		}
	}
	function search(term) {
		var re = new RegExp(term);
		var el = document.getElementById("frames").children;
		var matches = new Object();
		var maxwidth = 0;
		for (var i = 0; i < el.length; i++) {
			var e = el[i];
			var func = g_to_func(e);
			var rect = find_child(e, "rect");
			if (func == null || rect == null)
				continue;

			// Save max width. Only works as we have a root frame
			var w = parseFloat(rect.attributes.width.value);
			if (w > maxwidth)
				maxwidth = w;

			if (func.match(re)) {
				// highlight
				var x = parseFloat(rect.attributes.x.value);
				orig_save(rect, "fill");
				rect.attributes.fill.value = "rgb(230,0,230)";

				// remember matches
				if (matches[x] == undefined) {
					matches[x] = w;
				} else {
					if (w > matches[x]) {
						// overwrite with parent
						matches[x] = w;
					}
				}
				searching = 1;
			}
		}
		if (!searching)
			return;

		searchbtn.classList.add("show");
		searchbtn.firstChild.nodeValue = "Reset Search";

		// calculate percent matched, excluding vertical overlap
		var count = 0;
		var lastx = -1;
		var lastw = 0;
		var keys = Array();
		for (k in matches) {
			if (matches.hasOwnProperty(k))
				keys.push(k);
		}
		// sort the matched frames by their x location
		// ascending, then width descending
		keys.sort(function(a, b){
			return a - b;
		});
		// Step through frames saving only the biggest bottom-up frames
		// thanks to the sort order. This relies on the tree property
		// where children are always smaller than their parents.
		var fudge = 0.0001;	// JavaScript floating point
		for (var k in keys) {
			var x = parseFloat(keys[k]);
			var w = matches[keys[k]];
			if (x >= lastx + lastw - fudge) {
				count += w;
				lastx = x;
				lastw = w;
			}
		}
		// display matched percent
		matchedtxt.classList.remove("hide");
		var pct = 100 * count / maxwidth;
		if (pct != 100) pct = pct.toFixed(1)
		matchedtxt.firstChild.nodeValue = "Matched: " + pct + "%";
	}
]]>
</script>
<rect x="0" y="0" width="100%" height="100%" fill="rgb(240,240,220)"/>
<text id="title" x="600" y="24">Flame Graph</text>
<text id="details" x="10" y="341"> </text>
<text id="unzoom" x="10" y="24" class="hide">Reset Zoom</text>
<text id="search" x="1090" y="24">Search</text>
<text id="matched" x="1090" y="341"> </text>
<g id="frames">
<g>
<title>all (2,742 samples, 100.00%)</title><rect x="10.0" y="307.0" width="1180.0" height="15" fill="#e96464" rx="2" ry="2"/>
<text x="13.0" y="318.0">all</text>
</g>
<g>
<title>java/lang/Thread.run (1,469 samples, 53.57%)</title><rect x="10.0" y="291.0" width="632.2" height="15" fill="#5eef5e" rx="2" ry="2"/>
<text x="13.0" y="302.0">java/lang/Thread.run</text>
</g>
<g>
<title>java/util/concurrent/ThreadPoolExecutor$Worker.run (1,469 samples, 53.57%)</title><rect x="10.0" y="275.0" width="632.2" height="15" fill="#64f564" rx="2" ry="2"/>
<text x="13.0" y="286.0">java/util/concurrent/ThreadPoolExecutor$Worker.run</text>
</g>
<g>
<title>java/util/concurrent/ThreadPoolExecutor.runWorker (1,469 samples, 53.57%)</title><rect x="10.0" y="259.0" width="632.2" height="15" fill="#65f665" rx="2" ry="2"/>
<text x="13.0" y="270.0">java/util/concurrent/ThreadPoolExecutor.runWorker</text>
</g>
<g>
<title>java/util/concurrent/ThreadPoolExecutor.getTask (149 samples, 5.43%)</title><rect x="10.0" y="243.0" width="64.1" height="15" fill="#65f665" rx="2" ry="2"/>
<text x="13.0" y="254.0">java/ut..</text>
</g>
<g>
<title>java/util/concurrent/LinkedBlockingQueue.take (149 samples, 5.43%)</title><rect x="10.0" y="227.0" width="64.1" height="15" fill="#53e453" rx="2" ry="2"/>
<text x="13.0" y="238.0">java/ut..</text>
</g>
<g>
<title>java/util/concurrent/locks/AbstractQueuedSynchronizer$ConditionObject.await (146 samples, 5.32%)</title><rect x="10.0" y="211.0" width="62.8" height="15" fill="#5aeb5a" rx="2" ry="2"/>
<text x="13.0" y="222.0">java/u..</text>
</g>
<g>
<title>java/util/concurrent/locks/AbstractQueuedSynchronizer$ConditionObject.addConditionWaiter (146 samples, 5.32%)</title><rect x="10.0" y="195.0" width="62.8" height="15" fill="#60f160" rx="2" ry="2"/>
<text x="13.0" y="206.0">java/u..</text>
</g>
<g>
<title>java.util.concurrent.locks.AbstractQueuedSynchronizer$Node (146 samples, 5.32%)</title><rect x="10.0" y="179.0" width="62.8" height="15" fill="#65d3d3" rx="2" ry="2"/>
<text x="13.0" y="190.0">java.u..</text>
</g>
<g>
<title>java/util/concurrent/locks/ReentrantLock.lockInterruptibly (3 samples, 0.11%)</title><rect x="72.8" y="211.0" width="1.3" height="15" fill="#6bfc6b" rx="2" ry="2"/>
<text x="75.8" y="222.0"></text>
</g>
<g>
<title>java/util/concurrent/locks/AbstractQueuedSynchronizer.acquireInterruptibly (3 samples, 0.11%)</title><rect x="72.8" y="195.0" width="1.3" height="15" fill="#69fa69" rx="2" ry="2"/>
<text x="75.8" y="206.0"></text>
</g>
<g>
<title>java/util/concurrent/locks/AbstractQueuedSynchronizer.doAcquireInterruptibly (3 samples, 0.11%)</title><rect x="72.8" y="179.0" width="1.3" height="15" fill="#59ea59" rx="2" ry="2"/>
<text x="75.8" y="190.0"></text>
</g>
<g>
<title>java/util/concurrent/locks/AbstractQueuedSynchronizer.addWaiter (3 samples, 0.11%)</title><rect x="72.8" y="163.0" width="1.3" height="15" fill="#6cfd6c" rx="2" ry="2"/>
<text x="75.8" y="174.0"></text>
</g>
<g>
<title>java.util.concurrent.locks.AbstractQueuedSynchronizer$Node (3 samples, 0.11%)</title><rect x="72.8" y="147.0" width="1.3" height="15" fill="#6ad8d8" rx="2" ry="2"/>
<text x="75.8" y="158.0"></text>
</g>
<g>
<title>ru/mail/polis/service/alex/AsyncServiceImpl$$Lambda$65/80866200.run (1,320 samples, 48.14%)</title><rect x="74.1" y="243.0" width="568.1" height="15" fill="#67f867" rx="2" ry="2"/>
<text x="77.1" y="254.0">ru/mail/polis/service/alex/AsyncServiceImpl$$Lambda$65/80866200.run</text>
</g>
<g>
<title>ru/mail/polis/service/alex/AsyncServiceImpl.lambda$executeAsync$3 (1,320 samples, 48.14%)</title><rect x="74.1" y="227.0" width="568.1" height="15" fill="#52e352" rx="2" ry="2"/>
<text x="77.1" y="238.0">ru/mail/polis/service/alex/AsyncServiceImpl.lambda$executeAsync$3</text>
</g>
<g>
<title>one/nio/http/HttpSession.sendResponse (465 samples, 16.96%)</title><rect x="74.1" y="211.0" width="200.1" height="15" fill="#68f968" rx="2" ry="2"/>
<text x="77.1" y="222.0">one/nio/http/HttpSession.s..</text>
</g>
<g>
<title>one/nio/http/HttpSession.writeResponse (465 samples, 16.96%)</title><rect x="74.1" y="195.0" width="200.1" height="15" fill="#6afb6a" rx="2" ry="2"/>
<text x="77.1" y="206.0">one/nio/http/HttpSession.w..</text>
</g>
<g>
<title>one/nio/http/Response.toBytes (319 samples, 11.63%)</title><rect x="74.1" y="179.0" width="137.3" height="15" fill="#66f766" rx="2" ry="2"/>
<text x="77.1" y="190.0">one/nio/http/Resp..</text>
</g>
<g>
<title>one/nio/util/ByteArrayBuilder.&lt;init&gt; (319 samples, 11.63%)</title><rect x="74.1" y="163.0" width="137.3" height="15" fill="#66f766" rx="2" ry="2"/>
<text x="77.1" y="174.0">one/nio/util/Byte..</text>
</g>
<g>
<title>byte[] (319 samples, 11.63%)</title><rect x="74.1" y="147.0" width="137.3" height="15" fill="#65d3d3" rx="2" ry="2"/>
<text x="77.1" y="158.0">byte[]</text>
</g>
<g>
<title>one/nio/net/Session.write (146 samples, 5.32%)</title><rect x="211.4" y="179.0" width="62.8" height="15" fill="#65f665" rx="2" ry="2"/>
<text x="214.4" y="190.0">one/ni..</text>
</g>
<g>
<title>one.nio.net.Session$ArrayQueueItem (146 samples, 5.32%)</title><rect x="211.4" y="163.0" width="62.8" height="15" fill="#63d1d1" rx="2" ry="2"/>
<text x="214.4" y="174.0">one.ni..</text>
</g>
<g>
<title>ru/mail/polis/service/alex/AsyncServiceImpl$$Lambda$60/1922119469.action (855 samples, 31.18%)</title><rect x="274.2" y="211.0" width="368.0" height="15" fill="#62f362" rx="2" ry="2"/>
<text x="277.2" y="222.0">ru/mail/polis/service/alex/AsyncServiceImpl$$Lambd..</text>
</g>
<g>
<title>ru/mail/polis/service/alex/AsyncServiceImpl.lambda$entity$1 (855 samples, 31.18%)</title><rect x="274.2" y="195.0" width="368.0" height="15" fill="#6dfe6d" rx="2" ry="2"/>
<text x="277.2" y="206.0">ru/mail/polis/service/alex/AsyncServiceImpl.lambda..</text>
</g>
<g>
<title>ru/mail/polis/service/alex/AsyncServiceImpl.put (855 samples, 31.18%)</title><rect x="274.2" y="179.0" width="368.0" height="15" fill="#67f867" rx="2" ry="2"/>
<text x="277.2" y="190.0">ru/mail/polis/service/alex/AsyncServiceImpl.put</text>
</g>
<g>
<title>java/nio/ByteBuffer.wrap (193 samples, 7.04%)</title><rect x="274.2" y="163.0" width="83.1" height="15" fill="#65f665" rx="2" ry="2"/>
<text x="277.2" y="174.0">java/nio/..</text>
</g>
<g>
<title>java/nio/ByteBuffer.wrap (193 samples, 7.04%)</title><rect x="274.2" y="147.0" width="83.1" height="15" fill="#64f564" rx="2" ry="2"/>
<text x="277.2" y="158.0">java/nio/..</text>
</g>
<g>
<title>java.nio.HeapByteBuffer (193 samples, 7.04%)</title><rect x="274.2" y="131.0" width="83.1" height="15" fill="#69d7d7" rx="2" ry="2"/>
<text x="277.2" y="142.0">java.nio...</text>
</g>
<g>
<title>one.nio.http.Response (82 samples, 2.99%)</title><rect x="357.3" y="163.0" width="35.3" height="15" fill="#68d6d6" rx="2" ry="2"/>
<text x="360.3" y="174.0">one..</text>
</g>
<g>
<title>one/nio/http/Response.&lt;init&gt; (355 samples, 12.95%)</title><rect x="392.6" y="163.0" width="152.7" height="15" fill="#6afb6a" rx="2" ry="2"/>
<text x="395.6" y="174.0">one/nio/http/Respon..</text>
</g>
<g>
<title>byte[] (163 samples, 5.94%)</title><rect x="392.6" y="147.0" width="70.1" height="15" fill="#53c1c1" rx="2" ry="2"/>
<text x="395.6" y="158.0">byte[]</text>
</g>
<g>
<title>java.lang.String[] (114 samples, 4.16%)</title><rect x="462.7" y="147.0" width="49.1" height="15" fill="#58c6c6" rx="2" ry="2"/>
<text x="465.7" y="158.0">java...</text>
</g>
<g>
<title>java.lang.String (78 samples, 2.84%)</title><rect x="511.8" y="147.0" width="33.5" height="15" fill="#61cfcf" rx="2" ry="2"/>
<text x="514.8" y="158.0">ja..</text>
</g>
<g>
<title>ru/mail/polis/dao/alex/AlexDAO.upsert (225 samples, 8.21%)</title><rect x="545.3" y="163.0" width="96.9" height="15" fill="#69fa69" rx="2" ry="2"/>
<text x="548.3" y="174.0">ru/mail/pol..</text>
</g>
<g>
<title>ru/mail/polis/dao/alex/MemTablePool.upsert (225 samples, 8.21%)</title><rect x="545.3" y="147.0" width="96.9" height="15" fill="#50e150" rx="2" ry="2"/>
<text x="548.3" y="158.0">ru/mail/pol..</text>
</g>
<g>
<title>java/util/concurrent/locks/ReentrantReadWriteLock$ReadLock.lock (5 samples, 0.18%)</title><rect x="545.3" y="131.0" width="2.2" height="15" fill="#64f564" rx="2" ry="2"/>
<text x="548.3" y="142.0"></text>
</g>
<g>
<title>java/util/concurrent/locks/AbstractQueuedSynchronizer.acquireShared (5 samples, 0.18%)</title><rect x="545.3" y="115.0" width="2.2" height="15" fill="#55e655" rx="2" ry="2"/>
<text x="548.3" y="126.0"></text>
</g>
<g>
<title>java/util/concurrent/locks/ReentrantReadWriteLock$Sync.tryAcquireShared (5 samples, 0.18%)</title><rect x="545.3" y="99.0" width="2.2" height="15" fill="#60f160" rx="2" ry="2"/>
<text x="548.3" y="110.0"></text>
</g>
<g>
<title>java/lang/ThreadLocal.get (5 samples, 0.18%)</title><rect x="545.3" y="83.0" width="2.2" height="15" fill="#5ced5c" rx="2" ry="2"/>
<text x="548.3" y="94.0"></text>
</g>
<g>
<title>java/lang/ThreadLocal.setInitialValue (5 samples, 0.18%)</title><rect x="545.3" y="67.0" width="2.2" height="15" fill="#53e453" rx="2" ry="2"/>
<text x="548.3" y="78.0"></text>
</g>
<g>
<title>java/lang/ThreadLocal$ThreadLocalMap.set (5 samples, 0.18%)</title><rect x="545.3" y="51.0" width="2.2" height="15" fill="#5ced5c" rx="2" ry="2"/>
<text x="548.3" y="62.0"></text>
</g>
<g>
<title>java.lang.ThreadLocal$ThreadLocalMap$Entry (5 samples, 0.18%)</title><rect x="545.3" y="35.0" width="2.2" height="15" fill="#66d4d4" rx="2" ry="2"/>
<text x="548.3" y="46.0"></text>
</g>
<g>
<title>ru/mail/polis/dao/alex/MemTable.upsert (220 samples, 8.02%)</title><rect x="547.5" y="131.0" width="94.7" height="15" fill="#52e352" rx="2" ry="2"/>
<text x="550.5" y="142.0">ru/mail/pol..</text>
</g>
<g>
<title>ru/mail/polis/dao/alex/Row.of (120 samples, 4.38%)</title><rect x="547.5" y="115.0" width="51.6" height="15" fill="#58e958" rx="2" ry="2"/>
<text x="550.5" y="126.0">ru/ma..</text>
</g>
<g>
<title>ru.mail.polis.dao.alex.Row (120 samples, 4.38%)</title><rect x="547.5" y="99.0" width="51.6" height="15" fill="#5fcdcd" rx="2" ry="2"/>
<text x="550.5" y="110.0">ru.ma..</text>
</g>
<g>
<title>ru/mail/polis/dao/alex/Value.of (100 samples, 3.65%)</title><rect x="599.1" y="115.0" width="43.1" height="15" fill="#55e655" rx="2" ry="2"/>
<text x="602.1" y="126.0">ru/m..</text>
</g>
<g>
<title>ru.mail.polis.dao.alex.Value (100 samples, 3.65%)</title><rect x="599.1" y="99.0" width="43.1" height="15" fill="#53c1c1" rx="2" ry="2"/>
<text x="602.1" y="110.0">ru.m..</text>
</g>
<g>
<title>one/nio/server/AcceptorThread.run (1 samples, 0.04%)</title><rect x="642.2" y="291.0" width="0.4" height="15" fill="#5ced5c" rx="2" ry="2"/>
<text x="645.2" y="302.0"></text>
</g>
<g>
<title>ru/mail/polis/service/alex/AsyncServiceImpl.createSession (1 samples, 0.04%)</title><rect x="642.2" y="275.0" width="0.4" height="15" fill="#6bfc6b" rx="2" ry="2"/>
<text x="645.2" y="286.0"></text>
</g>
<g>
<title>ru/mail/polis/service/alex/AsyncServiceImpl.createSession (1 samples, 0.04%)</title><rect x="642.2" y="259.0" width="0.4" height="15" fill="#69fa69" rx="2" ry="2"/>
<text x="645.2" y="270.0"></text>
</g>
<g>
<title>ru.mail.polis.service.alex.StorageSession (1 samples, 0.04%)</title><rect x="642.2" y="243.0" width="0.4" height="15" fill="#54c2c2" rx="2" ry="2"/>
<text x="645.2" y="254.0"></text>
</g>
<g>
<title>one/nio/server/SelectorThread.run (1,272 samples, 46.39%)</title><rect x="642.6" y="291.0" width="547.4" height="15" fill="#63f463" rx="2" ry="2"/>
<text x="645.6" y="302.0">one/nio/server/SelectorThread.run</text>
</g>
<g>
<title>one/nio/net/NativeSelector.select (44 samples, 1.60%)</title><rect x="642.6" y="275.0" width="18.9" height="15" fill="#5eef5e" rx="2" ry="2"/>
<text x="645.6" y="286.0"></text>
</g>
<g>
<title>one.nio.net.NativeSelector$2 (44 samples, 1.60%)</title><rect x="642.6" y="259.0" width="18.9" height="15" fill="#66d4d4" rx="2" ry="2"/>
<text x="645.6" y="270.0"></text>
</g>
<g>
<title>one/nio/net/Session.process (1,228 samples, 44.78%)</title><rect x="661.5" y="275.0" width="528.5" height="15" fill="#62f362" rx="2" ry="2"/>
<text x="664.5" y="286.0">one/nio/net/Session.process</text>
</g>
<g>
<title>one/nio/http/HttpSession.processRead (1,228 samples, 44.78%)</title><rect x="661.5" y="259.0" width="528.5" height="15" fill="#58e958" rx="2" ry="2"/>
<text x="664.5" y="270.0">one/nio/http/HttpSession.processRead</text>
</g>
<g>
<title>one/nio/http/HttpSession.processHttpBuffer (1,228 samples, 44.78%)</title><rect x="661.5" y="243.0" width="528.5" height="15" fill="#5dee5d" rx="2" ry="2"/>
<text x="664.5" y="254.0">one/nio/http/HttpSession.processHttpBuffer</text>
</g>
<g>
<title>one/nio/http/HttpSession.handleParsedRequest (353 samples, 12.87%)</title><rect x="661.5" y="227.0" width="152.0" height="15" fill="#59ea59" rx="2" ry="2"/>
<text x="664.5" y="238.0">one/nio/http/HttpSe..</text>
</g>
<g>
<title>one/nio/http/HttpServer.handleRequest (353 samples, 12.87%)</title><rect x="661.5" y="211.0" width="152.0" height="15" fill="#54e554" rx="2" ry="2"/>
<text x="664.5" y="222.0">one/nio/http/HttpSe..</text>
</g>
<g>
<title>RequestHandler1_entity.handleRequest (261 samples, 9.52%)</title><rect x="661.5" y="195.0" width="112.4" height="15" fill="#58e958" rx="2" ry="2"/>
<text x="664.5" y="206.0">RequestHandler..</text>
</g>
<g>
<title>one/nio/http/Request.getParameter (73 samples, 2.66%)</title><rect x="661.5" y="179.0" width="31.5" height="15" fill="#55e655" rx="2" ry="2"/>
<text x="664.5" y="190.0">on..</text>
</g>
<g>
<title>java/lang/String.substring (73 samples, 2.66%)</title><rect x="661.5" y="163.0" width="31.5" height="15" fill="#57e857" rx="2" ry="2"/>
<text x="664.5" y="174.0">ja..</text>
</g>
<g>
<title>java/lang/StringLatin1.newString (73 samples, 2.66%)</title><rect x="661.5" y="147.0" width="31.5" height="15" fill="#61f261" rx="2" ry="2"/>
<text x="664.5" y="158.0">ja..</text>
</g>
<g>
<title>java.lang.String (40 samples, 1.46%)</title><rect x="661.5" y="131.0" width="17.3" height="15" fill="#67d5d5" rx="2" ry="2"/>
<text x="664.5" y="142.0"></text>
</g>
<g>
<title>java/util/Arrays.copyOfRange (33 samples, 1.20%)</title><rect x="678.8" y="131.0" width="14.2" height="15" fill="#53e453" rx="2" ry="2"/>
<text x="681.8" y="142.0"></text>
</g>
<g>
<title>byte[] (33 samples, 1.20%)</title><rect x="678.8" y="115.0" width="14.2" height="15" fill="#61cfcf" rx="2" ry="2"/>
<text x="681.8" y="126.0"></text>
</g>
<g>
<title>ru/mail/polis/service/alex/AsyncServiceImpl.entity (188 samples, 6.86%)</title><rect x="693.0" y="179.0" width="80.9" height="15" fill="#5dee5d" rx="2" ry="2"/>
<text x="696.0" y="190.0">ru/mail/p..</text>
</g>
<g>
<title>java/lang/String.getBytes (33 samples, 1.20%)</title><rect x="693.0" y="163.0" width="14.2" height="15" fill="#58e958" rx="2" ry="2"/>
<text x="696.0" y="174.0"></text>
</g>
<g>
<title>java/lang/StringCoding.encode (33 samples, 1.20%)</title><rect x="693.0" y="147.0" width="14.2" height="15" fill="#53e453" rx="2" ry="2"/>
<text x="696.0" y="158.0"></text>
</g>
<g>
<title>java/lang/StringCoding.encodeUTF8 (33 samples, 1.20%)</title><rect x="693.0" y="131.0" width="14.2" height="15" fill="#69fa69" rx="2" ry="2"/>
<text x="696.0" y="142.0"></text>
</g>
<g>
<title>java/util/Arrays.copyOf (33 samples, 1.20%)</title><rect x="693.0" y="115.0" width="14.2" height="15" fill="#5bec5b" rx="2" ry="2"/>
<text x="696.0" y="126.0"></text>
</g>
<g>
<title>byte[] (33 samples, 1.20%)</title><rect x="693.0" y="99.0" width="14.2" height="15" fill="#60cece" rx="2" ry="2"/>
<text x="696.0" y="110.0"></text>
</g>
<g>
<title>java/lang/invoke/Invokers$Holder.linkToTargetMethod (38 samples, 1.39%)</title><rect x="707.2" y="163.0" width="16.3" height="15" fill="#61f261" rx="2" ry="2"/>
<text x="710.2" y="174.0"></text>
</g>
<g>
<title>java/lang/invoke/DirectMethodHandle$Holder.invokeStatic (38 samples, 1.39%)</title><rect x="707.2" y="147.0" width="16.3" height="15" fill="#5eef5e" rx="2" ry="2"/>
<text x="710.2" y="158.0"></text>
</g>
<g>
<title>ru/mail/polis/service/alex/AsyncServiceImpl$$Lambda$60/1922119469.get$Lambda (38 samples, 1.39%)</title><rect x="707.2" y="131.0" width="16.3" height="15" fill="#68f968" rx="2" ry="2"/>
<text x="710.2" y="142.0"></text>
</g>
<g>
<title>ru.mail.polis.service.alex.AsyncServiceImpl$$Lambda$60 (38 samples, 1.39%)</title><rect x="707.2" y="115.0" width="16.3" height="15" fill="#53c1c1" rx="2" ry="2"/>
<text x="710.2" y="126.0"></text>
</g>
<g>
<title>java/nio/ByteBuffer.wrap (56 samples, 2.04%)</title><rect x="723.5" y="163.0" width="24.1" height="15" fill="#63f463" rx="2" ry="2"/>
<text x="726.5" y="174.0">j..</text>
</g>
<g>
<title>java/nio/ByteBuffer.wrap (56 samples, 2.04%)</title><rect x="723.5" y="147.0" width="24.1" height="15" fill="#6bfc6b" rx="2" ry="2"/>
<text x="726.5" y="158.0">j..</text>
</g>
<g>
<title>java.nio.HeapByteBuffer (56 samples, 2.04%)</title><rect x="723.5" y="131.0" width="24.1" height="15" fill="#60cece" rx="2" ry="2"/>
<text x="726.5" y="142.0">j..</text>
</g>
<g>
<title>ru/mail/polis/service/alex/AsyncServiceImpl.executeAsync (61 samples, 2.22%)</title><rect x="747.6" y="163.0" width="26.3" height="15" fill="#60f160" rx="2" ry="2"/>
<text x="750.6" y="174.0">r..</text>
</g>
<g>
<title>java/lang/invoke/Invokers$Holder.linkToTargetMethod (33 samples, 1.20%)</title><rect x="747.6" y="147.0" width="14.2" height="15" fill="#66f766" rx="2" ry="2"/>
<text x="750.6" y="158.0"></text>
</g>
<g>
<title>java/lang/invoke/DirectMethodHandle$Holder.invokeStatic (33 samples, 1.20%)</title><rect x="747.6" y="131.0" width="14.2" height="15" fill="#64f564" rx="2" ry="2"/>
<text x="750.6" y="142.0"></text>
</g>
<g>
<title>ru/mail/polis/service/alex/AsyncServiceImpl$$Lambda$65/80866200.get$Lambda (33 samples, 1.20%)</title><rect x="747.6" y="115.0" width="14.2" height="15" fill="#55e655" rx="2" ry="2"/>
<text x="750.6" y="126.0"></text>
</g>
<g>
<title>ru.mail.polis.service.alex.AsyncServiceImpl$$Lambda$65 (33 samples, 1.20%)</title><rect x="747.6" y="99.0" width="14.2" height="15" fill="#57c5c5" rx="2" ry="2"/>
<text x="750.6" y="110.0"></text>
</g>
<g>
<title>java/util/concurrent/ThreadPoolExecutor.execute (28 samples, 1.02%)</title><rect x="761.8" y="147.0" width="12.1" height="15" fill="#5dee5d" rx="2" ry="2"/>
<text x="764.8" y="158.0"></text>
</g>
<g>
<title>java/util/concurrent/LinkedBlockingQueue.offer (28 samples, 1.02%)</title><rect x="761.8" y="131.0" width="12.1" height="15" fill="#68f968" rx="2" ry="2"/>
<text x="764.8" y="142.0"></text>
</g>
<g>
<title>java.util.concurrent.LinkedBlockingQueue$Node (27 samples, 0.98%)</title><rect x="761.8" y="115.0" width="11.6" height="15" fill="#60cece" rx="2" ry="2"/>
<text x="764.8" y="126.0"></text>
</g>
<g>
<title>java/util/concurrent/locks/ReentrantLock.lock (1 samples, 0.04%)</title><rect x="773.4" y="115.0" width="0.5" height="15" fill="#6bfc6b" rx="2" ry="2"/>
<text x="776.4" y="126.0"></text>
</g>
<g>
<title>java/util/concurrent/locks/AbstractQueuedSynchronizer.acquire (1 samples, 0.04%)</title><rect x="773.4" y="99.0" width="0.5" height="15" fill="#53e453" rx="2" ry="2"/>
<text x="776.4" y="110.0"></text>
</g>
<g>
<title>java/util/concurrent/locks/AbstractQueuedSynchronizer.addWaiter (1 samples, 0.04%)</title><rect x="773.4" y="83.0" width="0.5" height="15" fill="#64f564" rx="2" ry="2"/>
<text x="776.4" y="94.0"></text>
</g>
<g>
<title>java.util.concurrent.locks.AbstractQueuedSynchronizer$Node (1 samples, 0.04%)</title><rect x="773.4" y="67.0" width="0.5" height="15" fill="#55c3c3" rx="2" ry="2"/>
<text x="776.4" y="78.0"></text>
</g>
<g>
<title>one/nio/http/Request.getPath (92 samples, 3.36%)</title><rect x="773.9" y="195.0" width="39.6" height="15" fill="#59ea59" rx="2" ry="2"/>
<text x="776.9" y="206.0">one..</text>
</g>
<g>
<title>java/lang/String.substring (92 samples, 3.36%)</title><rect x="773.9" y="179.0" width="39.6" height="15" fill="#6cfd6c" rx="2" ry="2"/>
<text x="776.9" y="190.0">jav..</text>
</g>
<g>
<title>java/lang/StringLatin1.newString (92 samples, 3.36%)</title><rect x="773.9" y="163.0" width="39.6" height="15" fill="#67f867" rx="2" ry="2"/>
<text x="776.9" y="174.0">jav..</text>
</g>
<g>
<title>java.lang.String (36 samples, 1.31%)</title><rect x="773.9" y="147.0" width="15.5" height="15" fill="#52c0c0" rx="2" ry="2"/>
<text x="776.9" y="158.0"></text>
</g>
<g>
<title>java/util/Arrays.copyOfRange (56 samples, 2.04%)</title><rect x="789.4" y="147.0" width="24.1" height="15" fill="#51e251" rx="2" ry="2"/>
<text x="792.4" y="158.0">j..</text>
</g>
<g>
<title>byte[] (56 samples, 2.04%)</title><rect x="789.4" y="131.0" width="24.1" height="15" fill="#5ac8c8" rx="2" ry="2"/>
<text x="792.4" y="142.0">b..</text>
</g>
<g>
<title>one/nio/http/HttpSession.parseRequest (451 samples, 16.45%)</title><rect x="813.5" y="227.0" width="194.0" height="15" fill="#60f160" rx="2" ry="2"/>
<text x="816.5" y="238.0">one/nio/http/HttpSession...</text>
</g>
<g>
<title>one.nio.http.Request (52 samples, 1.90%)</title><rect x="813.5" y="211.0" width="22.3" height="15" fill="#59c7c7" rx="2" ry="2"/>
<text x="816.5" y="222.0">o..</text>
</g>
<g>
<title>one/nio/http/Request.&lt;init&gt; (122 samples, 4.45%)</title><rect x="835.8" y="211.0" width="52.5" height="15" fill="#5eef5e" rx="2" ry="2"/>
<text x="838.8" y="222.0">one/n..</text>
</g>
<g>
<title>java.lang.String[] (122 samples, 4.45%)</title><rect x="835.8" y="195.0" width="52.5" height="15" fill="#5ccaca" rx="2" ry="2"/>
<text x="838.8" y="206.0">java...</text>
</g>
<g>
<title>one/nio/util/Utf8.read (277 samples, 10.10%)</title><rect x="888.3" y="211.0" width="119.2" height="15" fill="#65f665" rx="2" ry="2"/>
<text x="891.3" y="222.0">one/nio/util/Ut..</text>
</g>
<g>
<title>one/nio/util/Utf8.read (277 samples, 10.10%)</title><rect x="888.3" y="195.0" width="119.2" height="15" fill="#50e150" rx="2" ry="2"/>
<text x="891.3" y="206.0">one/nio/util/Ut..</text>
</g>
<g>
<title>char[] (157 samples, 5.73%)</title><rect x="888.3" y="179.0" width="67.6" height="15" fill="#50bebe" rx="2" ry="2"/>
<text x="891.3" y="190.0">char[]</text>
</g>
<g>
<title>java.lang.String (44 samples, 1.60%)</title><rect x="955.9" y="179.0" width="18.9" height="15" fill="#56c4c4" rx="2" ry="2"/>
<text x="958.9" y="190.0"></text>
</g>
<g>
<title>java/lang/String.&lt;init&gt; (76 samples, 2.77%)</title><rect x="974.8" y="179.0" width="32.7" height="15" fill="#69fa69" rx="2" ry="2"/>
<text x="977.8" y="190.0">ja..</text>
</g>
<g>
<title>java/lang/String.&lt;init&gt; (76 samples, 2.77%)</title><rect x="974.8" y="163.0" width="32.7" height="15" fill="#54e554" rx="2" ry="2"/>
<text x="977.8" y="174.0">ja..</text>
</g>
<g>
<title>java/lang/StringUTF16.compress (76 samples, 2.77%)</title><rect x="974.8" y="147.0" width="32.7" height="15" fill="#69fa69" rx="2" ry="2"/>
<text x="977.8" y="158.0">ja..</text>
</g>
<g>
<title>byte[] (76 samples, 2.77%)</title><rect x="974.8" y="131.0" width="32.7" height="15" fill="#66d4d4" rx="2" ry="2"/>
<text x="977.8" y="142.0">by..</text>
</g>
<g>
<title>one/nio/http/HttpSession.startParsingRequestBody (39 samples, 1.42%)</title><rect x="1007.5" y="227.0" width="16.8" height="15" fill="#64f564" rx="2" ry="2"/>
<text x="1010.5" y="238.0"></text>
</g>
<g>
<title>byte[] (39 samples, 1.42%)</title><rect x="1007.5" y="211.0" width="16.8" height="15" fill="#5ccaca" rx="2" ry="2"/>
<text x="1010.5" y="222.0"></text>
</g>
<g>
<title>one/nio/http/Request.getHeader (62 samples, 2.26%)</title><rect x="1024.3" y="227.0" width="26.7" height="15" fill="#5ff05f" rx="2" ry="2"/>
<text x="1027.3" y="238.0">o..</text>
</g>
<g>
<title>java/lang/String.substring (62 samples, 2.26%)</title><rect x="1024.3" y="211.0" width="26.7" height="15" fill="#5bec5b" rx="2" ry="2"/>
<text x="1027.3" y="222.0">j..</text>
</g>
<g>
<title>java/lang/StringLatin1.newString (62 samples, 2.26%)</title><rect x="1024.3" y="195.0" width="26.7" height="15" fill="#61f261" rx="2" ry="2"/>
<text x="1027.3" y="206.0">j..</text>
</g>
<g>
<title>java.lang.String (34 samples, 1.24%)</title><rect x="1024.3" y="179.0" width="14.6" height="15" fill="#67d5d5" rx="2" ry="2"/>
<text x="1027.3" y="190.0"></text>
</g>
<g>
<title>java/util/Arrays.copyOfRange (28 samples, 1.02%)</title><rect x="1038.9" y="179.0" width="12.1" height="15" fill="#68f968" rx="2" ry="2"/>
<text x="1041.9" y="190.0"></text>
</g>
<g>
<title>byte[] (28 samples, 1.02%)</title><rect x="1038.9" y="163.0" width="12.1" height="15" fill="#5ccaca" rx="2" ry="2"/>
<text x="1041.9" y="174.0"></text>
</g>
<g>
<title>one/nio/util/Utf8.read (323 samples, 11.78%)</title><rect x="1051.0" y="227.0" width="139.0" height="15" fill="#59ea59" rx="2" ry="2"/>
<text x="1054.0" y="238.0">one/nio/util/Utf8..</text>
</g>
<g>
<title>one/nio/util/Utf8.read (323 samples, 11.78%)</title><rect x="1051.0" y="211.0" width="139.0" height="15" fill="#66f766" rx="2" ry="2"/>
<text x="1054.0" y="222.0">one/nio/util/Utf8..</text>
</g>
<g>
<title>char[] (149 samples, 5.43%)</title><rect x="1051.0" y="195.0" width="64.1" height="15" fill="#5fcdcd" rx="2" ry="2"/>
<text x="1054.0" y="206.0">char[]</text>
</g>
<g>
<title>java.lang.String (55 samples, 2.01%)</title><rect x="1115.1" y="195.0" width="23.7" height="15" fill="#50bebe" rx="2" ry="2"/>
<text x="1118.1" y="206.0">j..</text>
</g>
<g>
<title>java/lang/String.&lt;init&gt; (119 samples, 4.34%)</title><rect x="1138.8" y="195.0" width="51.2" height="15" fill="#6cfd6c" rx="2" ry="2"/>
<text x="1141.8" y="206.0">java/..</text>
</g>
<g>
<title>java/lang/String.&lt;init&gt; (119 samples, 4.34%)</title><rect x="1138.8" y="179.0" width="51.2" height="15" fill="#69fa69" rx="2" ry="2"/>
<text x="1141.8" y="190.0">java/..</text>
</g>
<g>
<title>java/lang/StringUTF16.compress (119 samples, 4.34%)</title><rect x="1138.8" y="163.0" width="51.2" height="15" fill="#6cfd6c" rx="2" ry="2"/>
<text x="1141.8" y="174.0">java/..</text>
</g>
<g>
<title>byte[] (119 samples, 4.34%)</title><rect x="1138.8" y="147.0" width="51.2" height="15" fill="#65d3d3" rx="2" ry="2"/>
<text x="1141.8" y="158.0">byte[]</text>
</g>
</g>
</svg>
